<svg width="108" height="54" viewBox="0 0 108 54" fill="none" xmlns="http://www.w3.org/2000/svg">
<path d="M51.5 19.5C51.4996 21.2501 51.9584 22.9696 52.8307 24.4868C53.703 26.004 54.9582 27.2657 56.4709 28.1459C57.9835 29.026 59.7007 29.4938 61.4507 29.5024C63.2008 29.511 64.9225 29.0602 66.4437 28.195C65.8425 34.5375 60.5 39.5 54 39.5C47.0963 39.5 41.5 33.9037 41.5 27C41.5 20.5 46.4625 15.1575 52.805 14.5563C51.9469 16.0624 51.4971 17.7666 51.5 19.5V19.5ZM44 27C44 29.6522 45.0536 32.1957 46.9289 34.0711C48.8043 35.9464 51.3478 37 54 37C55.7668 36.9999 57.5022 36.532 59.0296 35.6439C60.557 34.7558 61.8221 33.4792 62.6963 31.9437C62.3013 31.9812 61.9013 32 61.5 32C54.5963 32 49 26.4037 49 19.5C49 19.0987 49.0188 18.7 49.0563 18.3038C47.5208 19.1779 46.2442 20.443 45.3561 21.9704C44.468 23.4978 44.0001 25.2332 44 27V27ZM61.705 14.8637L62.75 15.125V16.375L61.705 16.6363C61.2655 16.7462 60.8641 16.9734 60.5438 17.2938C60.2234 17.6141 59.9962 18.0155 59.8862 18.455L59.625 19.5H58.375L58.1138 18.455C58.0038 18.0155 57.7766 17.6141 57.4562 17.2938C57.1359 16.9734 56.7345 16.7462 56.295 16.6363L55.25 16.375V15.125L56.295 14.8637C56.7343 14.7536 57.1354 14.5263 57.4555 14.2059C57.7756 13.8856 58.0027 13.4843 58.1125 13.045L58.375 12H59.625L59.8862 13.045C59.9962 13.4845 60.2234 13.8859 60.5438 14.2062C60.8641 14.5266 61.2655 14.7538 61.705 14.8637V14.8637ZM67.955 21.1137L69 21.375V22.625L67.955 22.8862C67.5155 22.9962 67.1141 23.2234 66.7938 23.5438C66.4734 23.8641 66.2462 24.2655 66.1362 24.705L65.875 25.75H64.625L64.3638 24.705C64.2538 24.2655 64.0266 23.8641 63.7062 23.5438C63.3859 23.2234 62.9845 22.9962 62.545 22.8862L61.5 22.625V21.375L62.545 21.1137C62.9845 21.0038 63.3859 20.7766 63.7062 20.4562C64.0266 20.1359 64.2538 19.7345 64.3638 19.295L64.625 18.25H65.875L66.1362 19.295C66.2462 19.7345 66.4734 20.1359 66.7938 20.4562C67.1141 20.7766 67.5155 21.0038 67.955 21.1137Z" fill="#EAEAFF" fill-opacity="0.9"/>
</svg>
