<svg width="108" height="54" viewBox="0 0 108 54" fill="none" xmlns="http://www.w3.org/2000/svg">
<path d="M54 34.5C52.0109 34.5 50.1032 33.7098 48.6967 32.3033C47.2902 30.8968 46.5 28.9891 46.5 27C46.5 25.0109 47.2902 23.1032 48.6967 21.6967C50.1032 20.2902 52.0109 19.5 54 19.5C55.9891 19.5 57.8968 20.2902 59.3033 21.6967C60.7098 23.1032 61.5 25.0109 61.5 27C61.5 28.9891 60.7098 30.8968 59.3033 32.3033C57.8968 33.7098 55.9891 34.5 54 34.5ZM54 32C55.3261 32 56.5979 31.4732 57.5355 30.5355C58.4732 29.5979 59 28.3261 59 27C59 25.6739 58.4732 24.4021 57.5355 23.4645C56.5979 22.5268 55.3261 22 54 22C52.6739 22 51.4021 22.5268 50.4645 23.4645C49.5268 24.4021 49 25.6739 49 27C49 28.3261 49.5268 29.5979 50.4645 30.5355C51.4021 31.4732 52.6739 32 54 32V32ZM52.75 13.25H55.25V17H52.75V13.25ZM52.75 37H55.25V40.75H52.75V37ZM43.3938 18.1612L45.1612 16.3938L47.8125 19.045L46.045 20.8125L43.3938 18.1625V18.1612ZM60.1875 34.955L61.955 33.1875L64.6063 35.8387L62.8387 37.6063L60.1875 34.955ZM62.8387 16.3925L64.6063 18.1612L61.955 20.8125L60.1875 19.045L62.8387 16.3938V16.3925ZM46.045 33.1875L47.8125 34.955L45.1612 37.6063L43.3938 35.8387L46.045 33.1875V33.1875ZM67.75 25.75V28.25H64V25.75H67.75ZM44 25.75V28.25H40.25V25.75H44Z" fill="#EAEAFF" fill-opacity="0.9"/>
</svg>
