<svg width="108" height="54" viewBox="0 0 108 54" fill="none" xmlns="http://www.w3.org/2000/svg">
<path d="M44.0001 32H64.0001V18.25H44.0001V32ZM55.2501 34.5V37H60.2501V39.5H47.7501V37H52.7501V34.5H42.7401C42.5759 34.499 42.4136 34.4657 42.2623 34.4018C42.1111 34.338 41.974 34.2449 41.8588 34.128C41.7436 34.0111 41.6526 33.8725 41.5911 33.7204C41.5295 33.5682 41.4986 33.4054 41.5001 33.2413V17.0087C41.5001 16.3137 42.0688 15.75 42.7401 15.75H65.2601C65.9451 15.75 66.5001 16.3112 66.5001 17.0087V33.2413C66.5001 33.9363 65.9313 34.5 65.2601 34.5H55.2501V34.5Z" fill="#262B43" fill-opacity="0.9"/>
</svg>
